<svg xmlns="http://www.w3.org/2000/svg" viewBox="0 0 14 16" shape-rendering="crispEdges" role="img" aria-label="Flowsync">
  <title>Flowsync — hourglass</title>
  <rect x="0" y="0" width="14" height="1" fill="#2B2017"></rect>
  <rect x="0" y="1" width="1" height="1" fill="#2B2017"></rect>
  <rect x="1" y="1" width="12" height="1" fill="#6B5236"></rect>
  <rect x="13" y="1" width="1" height="1" fill="#2B2017"></rect>
  <rect x="1" y="2" width="1" height="1" fill="#2B2017"></rect>
  <rect x="2" y="2" width="10" height="1" fill="#E8D8A8"></rect>
  <rect x="12" y="2" width="1" height="1" fill="#2B2017"></rect>
  <rect x="2" y="3" width="1" height="1" fill="#2B2017"></rect>
  <rect x="3" y="3" width="8" height="1" fill="#E8D8A8"></rect>
  <rect x="11" y="3" width="1" height="1" fill="#2B2017"></rect>
  <rect x="3" y="4" width="1" height="1" fill="#2B2017"></rect>
  <rect x="4" y="4" width="6" height="1" fill="#E8D8A8"></rect>
  <rect x="10" y="4" width="1" height="1" fill="#2B2017"></rect>
  <rect x="4" y="5" width="1" height="1" fill="#2B2017"></rect>
  <rect x="5" y="5" width="4" height="1" fill="#E8D8A8"></rect>
  <rect x="9" y="5" width="1" height="1" fill="#2B2017"></rect>
  <rect x="5" y="6" width="1" height="1" fill="#2B2017"></rect>
  <rect x="6" y="6" width="2" height="1" fill="#E8D8A8"></rect>
  <rect x="8" y="6" width="1" height="1" fill="#2B2017"></rect>
  <rect x="6" y="7" width="2" height="1" fill="#2B2017"></rect>
  <rect x="6" y="8" width="2" height="1" fill="#2B2017"></rect>
  <rect x="5" y="9" width="1" height="1" fill="#2B2017"></rect>
  <rect x="8" y="9" width="1" height="1" fill="#2B2017"></rect>
  <rect x="4" y="10" width="1" height="1" fill="#2B2017"></rect>
  <rect x="6" y="10" width="2" height="1" fill="#E8D8A8"></rect>
  <rect x="9" y="10" width="1" height="1" fill="#2B2017"></rect>
  <rect x="3" y="11" width="1" height="1" fill="#2B2017"></rect>
  <rect x="5" y="11" width="4" height="1" fill="#E8D8A8"></rect>
  <rect x="10" y="11" width="1" height="1" fill="#2B2017"></rect>
  <rect x="2" y="12" width="1" height="1" fill="#2B2017"></rect>
  <rect x="4" y="12" width="6" height="1" fill="#E8D8A8"></rect>
  <rect x="11" y="12" width="1" height="1" fill="#2B2017"></rect>
  <rect x="1" y="13" width="1" height="1" fill="#2B2017"></rect>
  <rect x="3" y="13" width="8" height="1" fill="#E8D8A8"></rect>
  <rect x="12" y="13" width="1" height="1" fill="#2B2017"></rect>
  <rect x="0" y="14" width="1" height="1" fill="#2B2017"></rect>
  <rect x="1" y="14" width="2" height="1" fill="#6B5236"></rect>
  <rect x="3" y="14" width="8" height="1" fill="#E8D8A8"></rect>
  <rect x="11" y="14" width="2" height="1" fill="#6B5236"></rect>
  <rect x="13" y="14" width="1" height="1" fill="#2B2017"></rect>
  <rect x="0" y="15" width="14" height="1" fill="#2B2017"></rect>
</svg>