<svg xmlns="http://www.w3.org/2000/svg" viewBox="0 0 127 30" shape-rendering="crispEdges" role="img" aria-labelledby="t">
  <title id="t">Flowsync — your little focus buddy</title>
  <rect x="10" y="4" width="2" height="1" fill="#2B2017"></rect>
  <rect x="22" y="4" width="2" height="1" fill="#2B2017"></rect>
  <rect x="9" y="5" width="1" height="1" fill="#2B2017"></rect>
  <rect x="10" y="5" width="2" height="1" fill="#D9A89B"></rect>
  <rect x="12" y="5" width="1" height="1" fill="#2B2017"></rect>
  <rect x="21" y="5" width="1" height="1" fill="#2B2017"></rect>
  <rect x="22" y="5" width="2" height="1" fill="#D9A89B"></rect>
  <rect x="24" y="5" width="1" height="1" fill="#2B2017"></rect>
  <rect x="9" y="6" width="1" height="1" fill="#2B2017"></rect>
  <rect x="10" y="6" width="2" height="1" fill="#D9A89B"></rect>
  <rect x="12" y="6" width="1" height="1" fill="#2B2017"></rect>
  <rect x="21" y="6" width="1" height="1" fill="#2B2017"></rect>
  <rect x="22" y="6" width="2" height="1" fill="#D9A89B"></rect>
  <rect x="24" y="6" width="1" height="1" fill="#2B2017"></rect>
  <rect x="9" y="7" width="1" height="1" fill="#2B2017"></rect>
  <rect x="10" y="7" width="2" height="1" fill="#D9A89B"></rect>
  <rect x="12" y="7" width="1" height="1" fill="#2B2017"></rect>
  <rect x="21" y="7" width="1" height="1" fill="#2B2017"></rect>
  <rect x="22" y="7" width="2" height="1" fill="#D9A89B"></rect>
  <rect x="24" y="7" width="1" height="1" fill="#2B2017"></rect>
  <rect x="9" y="8" width="1" height="1" fill="#2B2017"></rect>
  <rect x="10" y="8" width="2" height="1" fill="#D9A89B"></rect>
  <rect x="12" y="8" width="1" height="1" fill="#2B2017"></rect>
  <rect x="21" y="8" width="1" height="1" fill="#2B2017"></rect>
  <rect x="22" y="8" width="2" height="1" fill="#D9A89B"></rect>
  <rect x="24" y="8" width="1" height="1" fill="#2B2017"></rect>
  <rect x="9" y="9" width="1" height="1" fill="#2B2017"></rect>
  <rect x="10" y="9" width="2" height="1" fill="#C9A983"></rect>
  <rect x="12" y="9" width="10" height="1" fill="#2B2017"></rect>
  <rect x="22" y="9" width="2" height="1" fill="#C9A983"></rect>
  <rect x="24" y="9" width="1" height="1" fill="#2B2017"></rect>
  <rect x="8" y="10" width="1" height="1" fill="#2B2017"></rect>
  <rect x="9" y="10" width="16" height="1" fill="#C9A983"></rect>
  <rect x="25" y="10" width="1" height="1" fill="#2B2017"></rect>
  <rect x="7" y="11" width="1" height="1" fill="#2B2017"></rect>
  <rect x="8" y="11" width="18" height="1" fill="#C9A983"></rect>
  <rect x="26" y="11" width="1" height="1" fill="#2B2017"></rect>
  <rect x="6" y="12" width="1" height="1" fill="#2B2017"></rect>
  <rect x="7" y="12" width="4" height="1" fill="#C9A983"></rect>
  <rect x="11" y="12" width="1" height="1" fill="#2B2017"></rect>
  <rect x="12" y="12" width="8" height="1" fill="#C9A983"></rect>
  <rect x="20" y="12" width="1" height="1" fill="#2B2017"></rect>
  <rect x="21" y="12" width="6" height="1" fill="#C9A983"></rect>
  <rect x="27" y="12" width="1" height="1" fill="#2B2017"></rect>
  <rect x="6" y="13" width="1" height="1" fill="#2B2017"></rect>
  <rect x="7" y="13" width="4" height="1" fill="#C9A983"></rect>
  <rect x="11" y="13" width="1" height="1" fill="#2B2017"></rect>
  <rect x="12" y="13" width="8" height="1" fill="#C9A983"></rect>
  <rect x="20" y="13" width="1" height="1" fill="#2B2017"></rect>
  <rect x="21" y="13" width="6" height="1" fill="#C9A983"></rect>
  <rect x="27" y="13" width="1" height="1" fill="#2B2017"></rect>
  <rect x="6" y="14" width="1" height="1" fill="#2B2017"></rect>
  <rect x="7" y="14" width="6" height="1" fill="#C9A983"></rect>
  <rect x="13" y="14" width="2" height="1" fill="#E0B0A2"></rect>
  <rect x="15" y="14" width="2" height="1" fill="#2B2017"></rect>
  <rect x="17" y="14" width="2" height="1" fill="#E0B0A2"></rect>
  <rect x="19" y="14" width="7" height="1" fill="#C9A983"></rect>
  <rect x="26" y="14" width="1" height="1" fill="#2B2017"></rect>
  <rect x="6" y="15" width="1" height="1" fill="#2B2017"></rect>
  <rect x="7" y="15" width="5" height="1" fill="#C9A983"></rect>
  <rect x="12" y="15" width="3" height="1" fill="#E0B0A2"></rect>
  <rect x="15" y="15" width="2" height="1" fill="#6B5236"></rect>
  <rect x="17" y="15" width="2" height="1" fill="#E0B0A2"></rect>
  <rect x="19" y="15" width="7" height="1" fill="#C9A983"></rect>
  <rect x="26" y="15" width="1" height="1" fill="#2B2017"></rect>
  <rect x="6" y="16" width="1" height="1" fill="#2B2017"></rect>
  <rect x="7" y="16" width="7" height="1" fill="#C9A983"></rect>
  <rect x="14" y="16" width="1" height="1" fill="#2B2017"></rect>
  <rect x="15" y="16" width="2" height="1" fill="#6B5236"></rect>
  <rect x="17" y="16" width="1" height="1" fill="#2B2017"></rect>
  <rect x="18" y="16" width="7" height="1" fill="#C9A983"></rect>
  <rect x="25" y="16" width="1" height="1" fill="#2B2017"></rect>
  <rect x="6" y="17" width="1" height="1" fill="#2B2017"></rect>
  <rect x="7" y="17" width="2" height="1" fill="#C9A983"></rect>
  <rect x="9" y="17" width="15" height="1" fill="#F2EDDA"></rect>
  <rect x="24" y="17" width="1" height="1" fill="#C9A983"></rect>
  <rect x="25" y="17" width="1" height="1" fill="#2B2017"></rect>
  <rect x="6" y="18" width="1" height="1" fill="#2B2017"></rect>
  <rect x="7" y="18" width="1" height="1" fill="#C9A983"></rect>
  <rect x="8" y="18" width="17" height="1" fill="#F2EDDA"></rect>
  <rect x="25" y="18" width="1" height="1" fill="#2B2017"></rect>
  <rect x="6" y="19" width="1" height="1" fill="#2B2017"></rect>
  <rect x="7" y="19" width="1" height="1" fill="#C9A983"></rect>
  <rect x="8" y="19" width="5" height="1" fill="#F2EDDA"></rect>
  <rect x="13" y="19" width="5" height="1" fill="#6B5236"></rect>
  <rect x="18" y="19" width="7" height="1" fill="#F2EDDA"></rect>
  <rect x="25" y="19" width="1" height="1" fill="#2B2017"></rect>
  <rect x="6" y="20" width="1" height="1" fill="#2B2017"></rect>
  <rect x="7" y="20" width="1" height="1" fill="#C9A983"></rect>
  <rect x="8" y="20" width="4" height="1" fill="#F2EDDA"></rect>
  <rect x="12" y="20" width="1" height="1" fill="#6B5236"></rect>
  <rect x="13" y="20" width="5" height="1" fill="#F2EDDA"></rect>
  <rect x="18" y="20" width="1" height="1" fill="#6B5236"></rect>
  <rect x="19" y="20" width="6" height="1" fill="#F2EDDA"></rect>
  <rect x="25" y="20" width="1" height="1" fill="#2B2017"></rect>
  <rect x="6" y="21" width="1" height="1" fill="#2B2017"></rect>
  <rect x="7" y="21" width="1" height="1" fill="#C9A983"></rect>
  <rect x="8" y="21" width="3" height="1" fill="#F2EDDA"></rect>
  <rect x="11" y="21" width="1" height="1" fill="#6B5236"></rect>
  <rect x="12" y="21" width="2" height="1" fill="#F2EDDA"></rect>
  <rect x="14" y="21" width="1" height="1" fill="#2B2017"></rect>
  <rect x="15" y="21" width="1" height="1" fill="#F2EDDA"></rect>
  <rect x="16" y="21" width="1" height="1" fill="#2B2017"></rect>
  <rect x="17" y="21" width="1" height="1" fill="#F2EDDA"></rect>
  <rect x="18" y="21" width="1" height="1" fill="#6B5236"></rect>
  <rect x="19" y="21" width="6" height="1" fill="#F2EDDA"></rect>
  <rect x="25" y="21" width="1" height="1" fill="#2B2017"></rect>
  <rect x="6" y="22" width="1" height="1" fill="#2B2017"></rect>
  <rect x="7" y="22" width="1" height="1" fill="#C9A983"></rect>
  <rect x="8" y="22" width="3" height="1" fill="#F2EDDA"></rect>
  <rect x="11" y="22" width="1" height="1" fill="#6B5236"></rect>
  <rect x="12" y="22" width="6" height="1" fill="#F2EDDA"></rect>
  <rect x="18" y="22" width="1" height="1" fill="#6B5236"></rect>
  <rect x="19" y="22" width="6" height="1" fill="#F2EDDA"></rect>
  <rect x="25" y="22" width="1" height="1" fill="#2B2017"></rect>
  <rect x="7" y="23" width="1" height="1" fill="#2B2017"></rect>
  <rect x="8" y="23" width="4" height="1" fill="#F2EDDA"></rect>
  <rect x="12" y="23" width="1" height="1" fill="#6B5236"></rect>
  <rect x="13" y="23" width="4" height="1" fill="#F2EDDA"></rect>
  <rect x="17" y="23" width="1" height="1" fill="#6B5236"></rect>
  <rect x="18" y="23" width="6" height="1" fill="#F2EDDA"></rect>
  <rect x="24" y="23" width="1" height="1" fill="#2B2017"></rect>
  <rect x="8" y="24" width="2" height="1" fill="#2B2017"></rect>
  <rect x="10" y="24" width="3" height="1" fill="#F2EDDA"></rect>
  <rect x="13" y="24" width="4" height="1" fill="#6B5236"></rect>
  <rect x="17" y="24" width="5" height="1" fill="#F2EDDA"></rect>
  <rect x="22" y="24" width="2" height="1" fill="#2B2017"></rect>
  <rect x="10" y="25" width="13" height="1" fill="#2B2017"></rect>
  <rect x="36" y="5" width="4" height="1" fill="#2B2017"></rect>
  <rect x="36" y="6" width="1" height="1" fill="#2B2017"></rect>
  <rect x="36" y="7" width="3" height="1" fill="#2B2017"></rect>
  <rect x="36" y="8" width="1" height="1" fill="#2B2017"></rect>
  <rect x="36" y="9" width="1" height="1" fill="#2B2017"></rect>
  <rect x="41" y="5" width="1" height="1" fill="#2B2017"></rect>
  <rect x="41" y="6" width="1" height="1" fill="#2B2017"></rect>
  <rect x="41" y="7" width="1" height="1" fill="#2B2017"></rect>
  <rect x="41" y="8" width="1" height="1" fill="#2B2017"></rect>
  <rect x="41" y="9" width="4" height="1" fill="#2B2017"></rect>
  <rect x="46" y="5" width="4" height="1" fill="#2B2017"></rect>
  <rect x="46" y="6" width="1" height="1" fill="#2B2017"></rect>
  <rect x="49" y="6" width="1" height="1" fill="#2B2017"></rect>
  <rect x="46" y="7" width="1" height="1" fill="#2B2017"></rect>
  <rect x="49" y="7" width="1" height="1" fill="#2B2017"></rect>
  <rect x="46" y="8" width="1" height="1" fill="#2B2017"></rect>
  <rect x="49" y="8" width="1" height="1" fill="#2B2017"></rect>
  <rect x="46" y="9" width="4" height="1" fill="#2B2017"></rect>
  <rect x="51" y="5" width="1" height="1" fill="#2B2017"></rect>
  <rect x="54" y="5" width="1" height="1" fill="#2B2017"></rect>
  <rect x="51" y="6" width="1" height="1" fill="#2B2017"></rect>
  <rect x="54" y="6" width="1" height="1" fill="#2B2017"></rect>
  <rect x="51" y="7" width="1" height="1" fill="#2B2017"></rect>
  <rect x="54" y="7" width="1" height="1" fill="#2B2017"></rect>
  <rect x="51" y="8" width="4" height="1" fill="#2B2017"></rect>
  <rect x="51" y="9" width="1" height="1" fill="#2B2017"></rect>
  <rect x="54" y="9" width="1" height="1" fill="#2B2017"></rect>
  <rect x="57" y="5" width="3" height="1" fill="#2B2017"></rect>
  <rect x="56" y="6" width="1" height="1" fill="#2B2017"></rect>
  <rect x="57" y="7" width="2" height="1" fill="#2B2017"></rect>
  <rect x="59" y="8" width="1" height="1" fill="#2B2017"></rect>
  <rect x="56" y="9" width="3" height="1" fill="#2B2017"></rect>
  <rect x="61" y="5" width="1" height="1" fill="#2B2017"></rect>
  <rect x="63" y="5" width="1" height="1" fill="#2B2017"></rect>
  <rect x="61" y="6" width="1" height="1" fill="#2B2017"></rect>
  <rect x="63" y="6" width="1" height="1" fill="#2B2017"></rect>
  <rect x="62" y="7" width="1" height="1" fill="#2B2017"></rect>
  <rect x="62" y="8" width="1" height="1" fill="#2B2017"></rect>
  <rect x="62" y="9" width="1" height="1" fill="#2B2017"></rect>
  <rect x="65" y="5" width="1" height="1" fill="#2B2017"></rect>
  <rect x="68" y="5" width="1" height="1" fill="#2B2017"></rect>
  <rect x="65" y="6" width="2" height="1" fill="#2B2017"></rect>
  <rect x="68" y="6" width="1" height="1" fill="#2B2017"></rect>
  <rect x="65" y="7" width="1" height="1" fill="#2B2017"></rect>
  <rect x="67" y="7" width="2" height="1" fill="#2B2017"></rect>
  <rect x="65" y="8" width="1" height="1" fill="#2B2017"></rect>
  <rect x="68" y="8" width="1" height="1" fill="#2B2017"></rect>
  <rect x="65" y="9" width="1" height="1" fill="#2B2017"></rect>
  <rect x="68" y="9" width="1" height="1" fill="#2B2017"></rect>
  <rect x="71" y="5" width="3" height="1" fill="#2B2017"></rect>
  <rect x="70" y="6" width="1" height="1" fill="#2B2017"></rect>
  <rect x="70" y="7" width="1" height="1" fill="#2B2017"></rect>
  <rect x="70" y="8" width="1" height="1" fill="#2B2017"></rect>
  <rect x="71" y="9" width="3" height="1" fill="#2B2017"></rect>
  
  <rect x="36" y="14" width="61" height="2" fill="#C99B8F"></rect>
  <rect x="36" y="20" width="3" height="1" fill="#6B5236"></rect>
  <rect x="36" y="21" width="1" height="1" fill="#6B5236"></rect>
  <rect x="36" y="22" width="2" height="1" fill="#6B5236"></rect>
  <rect x="36" y="23" width="1" height="1" fill="#6B5236"></rect>
  <rect x="36" y="24" width="1" height="1" fill="#6B5236"></rect>
  <rect x="40" y="20" width="3" height="1" fill="#6B5236"></rect>
  <rect x="40" y="21" width="1" height="1" fill="#6B5236"></rect>
  <rect x="42" y="21" width="1" height="1" fill="#6B5236"></rect>
  <rect x="40" y="22" width="1" height="1" fill="#6B5236"></rect>
  <rect x="42" y="22" width="1" height="1" fill="#6B5236"></rect>
  <rect x="40" y="23" width="1" height="1" fill="#6B5236"></rect>
  <rect x="42" y="23" width="1" height="1" fill="#6B5236"></rect>
  <rect x="40" y="24" width="3" height="1" fill="#6B5236"></rect>
  <rect x="44" y="20" width="3" height="1" fill="#6B5236"></rect>
  <rect x="44" y="21" width="1" height="1" fill="#6B5236"></rect>
  <rect x="44" y="22" width="1" height="1" fill="#6B5236"></rect>
  <rect x="44" y="23" width="1" height="1" fill="#6B5236"></rect>
  <rect x="44" y="24" width="3" height="1" fill="#6B5236"></rect>
  <rect x="48" y="20" width="1" height="1" fill="#6B5236"></rect>
  <rect x="50" y="20" width="1" height="1" fill="#6B5236"></rect>
  <rect x="48" y="21" width="1" height="1" fill="#6B5236"></rect>
  <rect x="50" y="21" width="1" height="1" fill="#6B5236"></rect>
  <rect x="48" y="22" width="1" height="1" fill="#6B5236"></rect>
  <rect x="50" y="22" width="1" height="1" fill="#6B5236"></rect>
  <rect x="48" y="23" width="1" height="1" fill="#6B5236"></rect>
  <rect x="50" y="23" width="1" height="1" fill="#6B5236"></rect>
  <rect x="48" y="24" width="3" height="1" fill="#6B5236"></rect>
  <rect x="52" y="20" width="3" height="1" fill="#6B5236"></rect>
  <rect x="52" y="21" width="1" height="1" fill="#6B5236"></rect>
  <rect x="52" y="22" width="3" height="1" fill="#6B5236"></rect>
  <rect x="54" y="23" width="1" height="1" fill="#6B5236"></rect>
  <rect x="52" y="24" width="3" height="1" fill="#6B5236"></rect>
  
  <rect x="61" y="22" width="1" height="1" fill="#6B5236"></rect>
  
  <rect x="68" y="20" width="2" height="1" fill="#6B5236"></rect>
  <rect x="68" y="21" width="1" height="1" fill="#6B5236"></rect>
  <rect x="70" y="21" width="1" height="1" fill="#6B5236"></rect>
  <rect x="68" y="22" width="2" height="1" fill="#6B5236"></rect>
  <rect x="68" y="23" width="1" height="1" fill="#6B5236"></rect>
  <rect x="70" y="23" width="1" height="1" fill="#6B5236"></rect>
  <rect x="68" y="24" width="2" height="1" fill="#6B5236"></rect>
  <rect x="72" y="20" width="2" height="1" fill="#6B5236"></rect>
  <rect x="72" y="21" width="1" height="1" fill="#6B5236"></rect>
  <rect x="74" y="21" width="1" height="1" fill="#6B5236"></rect>
  <rect x="72" y="22" width="2" height="1" fill="#6B5236"></rect>
  <rect x="72" y="23" width="1" height="1" fill="#6B5236"></rect>
  <rect x="74" y="23" width="1" height="1" fill="#6B5236"></rect>
  <rect x="72" y="24" width="1" height="1" fill="#6B5236"></rect>
  <rect x="74" y="24" width="1" height="1" fill="#6B5236"></rect>
  <rect x="76" y="20" width="3" height="1" fill="#6B5236"></rect>
  <rect x="76" y="21" width="1" height="1" fill="#6B5236"></rect>
  <rect x="76" y="22" width="3" height="1" fill="#6B5236"></rect>
  <rect x="76" y="23" width="1" height="1" fill="#6B5236"></rect>
  <rect x="76" y="24" width="3" height="1" fill="#6B5236"></rect>
  <rect x="80" y="20" width="3" height="1" fill="#6B5236"></rect>
  <rect x="80" y="21" width="1" height="1" fill="#6B5236"></rect>
  <rect x="82" y="21" width="1" height="1" fill="#6B5236"></rect>
  <rect x="80" y="22" width="3" height="1" fill="#6B5236"></rect>
  <rect x="80" y="23" width="1" height="1" fill="#6B5236"></rect>
  <rect x="82" y="23" width="1" height="1" fill="#6B5236"></rect>
  <rect x="80" y="24" width="1" height="1" fill="#6B5236"></rect>
  <rect x="82" y="24" width="1" height="1" fill="#6B5236"></rect>
  <rect x="84" y="20" width="1" height="1" fill="#6B5236"></rect>
  <rect x="86" y="20" width="1" height="1" fill="#6B5236"></rect>
  <rect x="84" y="21" width="2" height="1" fill="#6B5236"></rect>
  <rect x="84" y="22" width="1" height="1" fill="#6B5236"></rect>
  <rect x="84" y="23" width="2" height="1" fill="#6B5236"></rect>
  <rect x="84" y="24" width="1" height="1" fill="#6B5236"></rect>
  <rect x="86" y="24" width="1" height="1" fill="#6B5236"></rect>
  
  <rect x="93" y="22" width="1" height="1" fill="#6B5236"></rect>
  
  <rect x="100" y="20" width="2" height="1" fill="#6B5236"></rect>
  <rect x="100" y="21" width="1" height="1" fill="#6B5236"></rect>
  <rect x="102" y="21" width="1" height="1" fill="#6B5236"></rect>
  <rect x="100" y="22" width="2" height="1" fill="#6B5236"></rect>
  <rect x="100" y="23" width="1" height="1" fill="#6B5236"></rect>
  <rect x="102" y="23" width="1" height="1" fill="#6B5236"></rect>
  <rect x="100" y="24" width="1" height="1" fill="#6B5236"></rect>
  <rect x="102" y="24" width="1" height="1" fill="#6B5236"></rect>
  <rect x="104" y="20" width="3" height="1" fill="#6B5236"></rect>
  <rect x="104" y="21" width="1" height="1" fill="#6B5236"></rect>
  <rect x="104" y="22" width="3" height="1" fill="#6B5236"></rect>
  <rect x="104" y="23" width="1" height="1" fill="#6B5236"></rect>
  <rect x="104" y="24" width="3" height="1" fill="#6B5236"></rect>
  <rect x="108" y="20" width="2" height="1" fill="#6B5236"></rect>
  <rect x="108" y="21" width="1" height="1" fill="#6B5236"></rect>
  <rect x="110" y="21" width="1" height="1" fill="#6B5236"></rect>
  <rect x="108" y="22" width="2" height="1" fill="#6B5236"></rect>
  <rect x="108" y="23" width="1" height="1" fill="#6B5236"></rect>
  <rect x="108" y="24" width="1" height="1" fill="#6B5236"></rect>
  <rect x="112" y="20" width="3" height="1" fill="#6B5236"></rect>
  <rect x="112" y="21" width="1" height="1" fill="#6B5236"></rect>
  <rect x="112" y="22" width="3" height="1" fill="#6B5236"></rect>
  <rect x="112" y="23" width="1" height="1" fill="#6B5236"></rect>
  <rect x="112" y="24" width="3" height="1" fill="#6B5236"></rect>
  <rect x="116" y="20" width="3" height="1" fill="#6B5236"></rect>
  <rect x="116" y="21" width="1" height="1" fill="#6B5236"></rect>
  <rect x="118" y="21" width="1" height="1" fill="#6B5236"></rect>
  <rect x="116" y="22" width="3" height="1" fill="#6B5236"></rect>
  <rect x="116" y="23" width="1" height="1" fill="#6B5236"></rect>
  <rect x="118" y="23" width="1" height="1" fill="#6B5236"></rect>
  <rect x="116" y="24" width="1" height="1" fill="#6B5236"></rect>
  <rect x="118" y="24" width="1" height="1" fill="#6B5236"></rect>
  <rect x="120" y="20" width="3" height="1" fill="#6B5236"></rect>
  <rect x="121" y="21" width="1" height="1" fill="#6B5236"></rect>
  <rect x="121" y="22" width="1" height="1" fill="#6B5236"></rect>
  <rect x="121" y="23" width="1" height="1" fill="#6B5236"></rect>
  <rect x="121" y="24" width="1" height="1" fill="#6B5236"></rect>
  
</svg>