<svg xmlns="http://www.w3.org/2000/svg" viewBox="0 0 102 41" shape-rendering="crispEdges" role="img" aria-labelledby="t">
  <title id="t">Flowsync — focus, break, repeat</title>
  
  <rect x="3" y="3" width="99" height="38" fill="#2B2017"></rect>
  
  <rect x="0" y="0" width="99" height="38" fill="#2B2017"></rect>
  
  <rect x="2" y="2" width="95" height="34" fill="#B8C4BB"></rect>
  
  <rect x="21" y="6" width="14" height="1" fill="#2B2017"></rect>
  <rect x="21" y="7" width="1" height="1" fill="#2B2017"></rect>
  <rect x="22" y="7" width="12" height="1" fill="#6B5236"></rect>
  <rect x="34" y="7" width="1" height="1" fill="#2B2017"></rect>
  <rect x="22" y="8" width="1" height="1" fill="#2B2017"></rect>
  <rect x="23" y="8" width="10" height="1" fill="#E8D8A8"></rect>
  <rect x="33" y="8" width="1" height="1" fill="#2B2017"></rect>
  <rect x="23" y="9" width="1" height="1" fill="#2B2017"></rect>
  <rect x="24" y="9" width="8" height="1" fill="#E8D8A8"></rect>
  <rect x="32" y="9" width="1" height="1" fill="#2B2017"></rect>
  <rect x="24" y="10" width="1" height="1" fill="#2B2017"></rect>
  <rect x="25" y="10" width="6" height="1" fill="#E8D8A8"></rect>
  <rect x="31" y="10" width="1" height="1" fill="#2B2017"></rect>
  <rect x="25" y="11" width="1" height="1" fill="#2B2017"></rect>
  <rect x="26" y="11" width="4" height="1" fill="#E8D8A8"></rect>
  <rect x="30" y="11" width="1" height="1" fill="#2B2017"></rect>
  <rect x="26" y="12" width="1" height="1" fill="#2B2017"></rect>
  <rect x="27" y="12" width="2" height="1" fill="#E8D8A8"></rect>
  <rect x="29" y="12" width="1" height="1" fill="#2B2017"></rect>
  <rect x="27" y="13" width="2" height="1" fill="#2B2017"></rect>
  <rect x="27" y="14" width="2" height="1" fill="#2B2017"></rect>
  <rect x="26" y="15" width="1" height="1" fill="#2B2017"></rect>
  <rect x="29" y="15" width="1" height="1" fill="#2B2017"></rect>
  <rect x="25" y="16" width="1" height="1" fill="#2B2017"></rect>
  <rect x="27" y="16" width="2" height="1" fill="#E8D8A8"></rect>
  <rect x="30" y="16" width="1" height="1" fill="#2B2017"></rect>
  <rect x="24" y="17" width="1" height="1" fill="#2B2017"></rect>
  <rect x="26" y="17" width="4" height="1" fill="#E8D8A8"></rect>
  <rect x="31" y="17" width="1" height="1" fill="#2B2017"></rect>
  <rect x="23" y="18" width="1" height="1" fill="#2B2017"></rect>
  <rect x="25" y="18" width="6" height="1" fill="#E8D8A8"></rect>
  <rect x="32" y="18" width="1" height="1" fill="#2B2017"></rect>
  <rect x="22" y="19" width="1" height="1" fill="#2B2017"></rect>
  <rect x="24" y="19" width="8" height="1" fill="#E8D8A8"></rect>
  <rect x="33" y="19" width="1" height="1" fill="#2B2017"></rect>
  <rect x="21" y="20" width="1" height="1" fill="#2B2017"></rect>
  <rect x="22" y="20" width="2" height="1" fill="#6B5236"></rect>
  <rect x="24" y="20" width="8" height="1" fill="#E8D8A8"></rect>
  <rect x="32" y="20" width="2" height="1" fill="#6B5236"></rect>
  <rect x="34" y="20" width="1" height="1" fill="#2B2017"></rect>
  <rect x="21" y="21" width="14" height="1" fill="#2B2017"></rect>
  
  <rect x="41" y="12" width="4" height="1" fill="#2B2017"></rect>
  <rect x="41" y="13" width="1" height="1" fill="#2B2017"></rect>
  <rect x="41" y="14" width="3" height="1" fill="#2B2017"></rect>
  <rect x="41" y="15" width="1" height="1" fill="#2B2017"></rect>
  <rect x="41" y="16" width="1" height="1" fill="#2B2017"></rect>
  <rect x="46" y="12" width="1" height="1" fill="#2B2017"></rect>
  <rect x="46" y="13" width="1" height="1" fill="#2B2017"></rect>
  <rect x="46" y="14" width="1" height="1" fill="#2B2017"></rect>
  <rect x="46" y="15" width="1" height="1" fill="#2B2017"></rect>
  <rect x="46" y="16" width="4" height="1" fill="#2B2017"></rect>
  <rect x="51" y="12" width="4" height="1" fill="#2B2017"></rect>
  <rect x="51" y="13" width="1" height="1" fill="#2B2017"></rect>
  <rect x="54" y="13" width="1" height="1" fill="#2B2017"></rect>
  <rect x="51" y="14" width="1" height="1" fill="#2B2017"></rect>
  <rect x="54" y="14" width="1" height="1" fill="#2B2017"></rect>
  <rect x="51" y="15" width="1" height="1" fill="#2B2017"></rect>
  <rect x="54" y="15" width="1" height="1" fill="#2B2017"></rect>
  <rect x="51" y="16" width="4" height="1" fill="#2B2017"></rect>
  <rect x="56" y="12" width="1" height="1" fill="#2B2017"></rect>
  <rect x="59" y="12" width="1" height="1" fill="#2B2017"></rect>
  <rect x="56" y="13" width="1" height="1" fill="#2B2017"></rect>
  <rect x="59" y="13" width="1" height="1" fill="#2B2017"></rect>
  <rect x="56" y="14" width="1" height="1" fill="#2B2017"></rect>
  <rect x="59" y="14" width="1" height="1" fill="#2B2017"></rect>
  <rect x="56" y="15" width="4" height="1" fill="#2B2017"></rect>
  <rect x="56" y="16" width="1" height="1" fill="#2B2017"></rect>
  <rect x="59" y="16" width="1" height="1" fill="#2B2017"></rect>
  <rect x="62" y="12" width="3" height="1" fill="#2B2017"></rect>
  <rect x="61" y="13" width="1" height="1" fill="#2B2017"></rect>
  <rect x="62" y="14" width="2" height="1" fill="#2B2017"></rect>
  <rect x="64" y="15" width="1" height="1" fill="#2B2017"></rect>
  <rect x="61" y="16" width="3" height="1" fill="#2B2017"></rect>
  <rect x="66" y="12" width="1" height="1" fill="#2B2017"></rect>
  <rect x="68" y="12" width="1" height="1" fill="#2B2017"></rect>
  <rect x="66" y="13" width="1" height="1" fill="#2B2017"></rect>
  <rect x="68" y="13" width="1" height="1" fill="#2B2017"></rect>
  <rect x="67" y="14" width="1" height="1" fill="#2B2017"></rect>
  <rect x="67" y="15" width="1" height="1" fill="#2B2017"></rect>
  <rect x="67" y="16" width="1" height="1" fill="#2B2017"></rect>
  <rect x="70" y="12" width="1" height="1" fill="#2B2017"></rect>
  <rect x="73" y="12" width="1" height="1" fill="#2B2017"></rect>
  <rect x="70" y="13" width="2" height="1" fill="#2B2017"></rect>
  <rect x="73" y="13" width="1" height="1" fill="#2B2017"></rect>
  <rect x="70" y="14" width="1" height="1" fill="#2B2017"></rect>
  <rect x="72" y="14" width="2" height="1" fill="#2B2017"></rect>
  <rect x="70" y="15" width="1" height="1" fill="#2B2017"></rect>
  <rect x="73" y="15" width="1" height="1" fill="#2B2017"></rect>
  <rect x="70" y="16" width="1" height="1" fill="#2B2017"></rect>
  <rect x="73" y="16" width="1" height="1" fill="#2B2017"></rect>
  <rect x="76" y="12" width="3" height="1" fill="#2B2017"></rect>
  <rect x="75" y="13" width="1" height="1" fill="#2B2017"></rect>
  <rect x="75" y="14" width="1" height="1" fill="#2B2017"></rect>
  <rect x="75" y="15" width="1" height="1" fill="#2B2017"></rect>
  <rect x="76" y="16" width="3" height="1" fill="#2B2017"></rect>
  
  
  <rect x="6" y="27" width="3" height="1" fill="#2B2017"></rect>
  <rect x="6" y="28" width="1" height="1" fill="#2B2017"></rect>
  <rect x="6" y="29" width="2" height="1" fill="#2B2017"></rect>
  <rect x="6" y="30" width="1" height="1" fill="#2B2017"></rect>
  <rect x="6" y="31" width="1" height="1" fill="#2B2017"></rect>
  <rect x="10" y="27" width="3" height="1" fill="#2B2017"></rect>
  <rect x="10" y="28" width="1" height="1" fill="#2B2017"></rect>
  <rect x="12" y="28" width="1" height="1" fill="#2B2017"></rect>
  <rect x="10" y="29" width="1" height="1" fill="#2B2017"></rect>
  <rect x="12" y="29" width="1" height="1" fill="#2B2017"></rect>
  <rect x="10" y="30" width="1" height="1" fill="#2B2017"></rect>
  <rect x="12" y="30" width="1" height="1" fill="#2B2017"></rect>
  <rect x="10" y="31" width="3" height="1" fill="#2B2017"></rect>
  <rect x="14" y="27" width="3" height="1" fill="#2B2017"></rect>
  <rect x="14" y="28" width="1" height="1" fill="#2B2017"></rect>
  <rect x="14" y="29" width="1" height="1" fill="#2B2017"></rect>
  <rect x="14" y="30" width="1" height="1" fill="#2B2017"></rect>
  <rect x="14" y="31" width="3" height="1" fill="#2B2017"></rect>
  <rect x="18" y="27" width="1" height="1" fill="#2B2017"></rect>
  <rect x="20" y="27" width="1" height="1" fill="#2B2017"></rect>
  <rect x="18" y="28" width="1" height="1" fill="#2B2017"></rect>
  <rect x="20" y="28" width="1" height="1" fill="#2B2017"></rect>
  <rect x="18" y="29" width="1" height="1" fill="#2B2017"></rect>
  <rect x="20" y="29" width="1" height="1" fill="#2B2017"></rect>
  <rect x="18" y="30" width="1" height="1" fill="#2B2017"></rect>
  <rect x="20" y="30" width="1" height="1" fill="#2B2017"></rect>
  <rect x="18" y="31" width="3" height="1" fill="#2B2017"></rect>
  <rect x="22" y="27" width="3" height="1" fill="#2B2017"></rect>
  <rect x="22" y="28" width="1" height="1" fill="#2B2017"></rect>
  <rect x="22" y="29" width="3" height="1" fill="#2B2017"></rect>
  <rect x="24" y="30" width="1" height="1" fill="#2B2017"></rect>
  <rect x="22" y="31" width="3" height="1" fill="#2B2017"></rect>
  
  <rect x="31" y="29" width="1" height="1" fill="#2B2017"></rect>
  
  <rect x="38" y="27" width="2" height="1" fill="#2B2017"></rect>
  <rect x="38" y="28" width="1" height="1" fill="#2B2017"></rect>
  <rect x="40" y="28" width="1" height="1" fill="#2B2017"></rect>
  <rect x="38" y="29" width="2" height="1" fill="#2B2017"></rect>
  <rect x="38" y="30" width="1" height="1" fill="#2B2017"></rect>
  <rect x="40" y="30" width="1" height="1" fill="#2B2017"></rect>
  <rect x="38" y="31" width="2" height="1" fill="#2B2017"></rect>
  <rect x="42" y="27" width="2" height="1" fill="#2B2017"></rect>
  <rect x="42" y="28" width="1" height="1" fill="#2B2017"></rect>
  <rect x="44" y="28" width="1" height="1" fill="#2B2017"></rect>
  <rect x="42" y="29" width="2" height="1" fill="#2B2017"></rect>
  <rect x="42" y="30" width="1" height="1" fill="#2B2017"></rect>
  <rect x="44" y="30" width="1" height="1" fill="#2B2017"></rect>
  <rect x="42" y="31" width="1" height="1" fill="#2B2017"></rect>
  <rect x="44" y="31" width="1" height="1" fill="#2B2017"></rect>
  <rect x="46" y="27" width="3" height="1" fill="#2B2017"></rect>
  <rect x="46" y="28" width="1" height="1" fill="#2B2017"></rect>
  <rect x="46" y="29" width="3" height="1" fill="#2B2017"></rect>
  <rect x="46" y="30" width="1" height="1" fill="#2B2017"></rect>
  <rect x="46" y="31" width="3" height="1" fill="#2B2017"></rect>
  <rect x="50" y="27" width="3" height="1" fill="#2B2017"></rect>
  <rect x="50" y="28" width="1" height="1" fill="#2B2017"></rect>
  <rect x="52" y="28" width="1" height="1" fill="#2B2017"></rect>
  <rect x="50" y="29" width="3" height="1" fill="#2B2017"></rect>
  <rect x="50" y="30" width="1" height="1" fill="#2B2017"></rect>
  <rect x="52" y="30" width="1" height="1" fill="#2B2017"></rect>
  <rect x="50" y="31" width="1" height="1" fill="#2B2017"></rect>
  <rect x="52" y="31" width="1" height="1" fill="#2B2017"></rect>
  <rect x="54" y="27" width="1" height="1" fill="#2B2017"></rect>
  <rect x="56" y="27" width="1" height="1" fill="#2B2017"></rect>
  <rect x="54" y="28" width="2" height="1" fill="#2B2017"></rect>
  <rect x="54" y="29" width="1" height="1" fill="#2B2017"></rect>
  <rect x="54" y="30" width="2" height="1" fill="#2B2017"></rect>
  <rect x="54" y="31" width="1" height="1" fill="#2B2017"></rect>
  <rect x="56" y="31" width="1" height="1" fill="#2B2017"></rect>
  
  <rect x="63" y="29" width="1" height="1" fill="#2B2017"></rect>
  
  <rect x="70" y="27" width="2" height="1" fill="#2B2017"></rect>
  <rect x="70" y="28" width="1" height="1" fill="#2B2017"></rect>
  <rect x="72" y="28" width="1" height="1" fill="#2B2017"></rect>
  <rect x="70" y="29" width="2" height="1" fill="#2B2017"></rect>
  <rect x="70" y="30" width="1" height="1" fill="#2B2017"></rect>
  <rect x="72" y="30" width="1" height="1" fill="#2B2017"></rect>
  <rect x="70" y="31" width="1" height="1" fill="#2B2017"></rect>
  <rect x="72" y="31" width="1" height="1" fill="#2B2017"></rect>
  <rect x="74" y="27" width="3" height="1" fill="#2B2017"></rect>
  <rect x="74" y="28" width="1" height="1" fill="#2B2017"></rect>
  <rect x="74" y="29" width="3" height="1" fill="#2B2017"></rect>
  <rect x="74" y="30" width="1" height="1" fill="#2B2017"></rect>
  <rect x="74" y="31" width="3" height="1" fill="#2B2017"></rect>
  <rect x="78" y="27" width="2" height="1" fill="#2B2017"></rect>
  <rect x="78" y="28" width="1" height="1" fill="#2B2017"></rect>
  <rect x="80" y="28" width="1" height="1" fill="#2B2017"></rect>
  <rect x="78" y="29" width="2" height="1" fill="#2B2017"></rect>
  <rect x="78" y="30" width="1" height="1" fill="#2B2017"></rect>
  <rect x="78" y="31" width="1" height="1" fill="#2B2017"></rect>
  <rect x="82" y="27" width="3" height="1" fill="#2B2017"></rect>
  <rect x="82" y="28" width="1" height="1" fill="#2B2017"></rect>
  <rect x="82" y="29" width="3" height="1" fill="#2B2017"></rect>
  <rect x="82" y="30" width="1" height="1" fill="#2B2017"></rect>
  <rect x="82" y="31" width="3" height="1" fill="#2B2017"></rect>
  <rect x="86" y="27" width="3" height="1" fill="#2B2017"></rect>
  <rect x="86" y="28" width="1" height="1" fill="#2B2017"></rect>
  <rect x="88" y="28" width="1" height="1" fill="#2B2017"></rect>
  <rect x="86" y="29" width="3" height="1" fill="#2B2017"></rect>
  <rect x="86" y="30" width="1" height="1" fill="#2B2017"></rect>
  <rect x="88" y="30" width="1" height="1" fill="#2B2017"></rect>
  <rect x="86" y="31" width="1" height="1" fill="#2B2017"></rect>
  <rect x="88" y="31" width="1" height="1" fill="#2B2017"></rect>
  <rect x="90" y="27" width="3" height="1" fill="#2B2017"></rect>
  <rect x="91" y="28" width="1" height="1" fill="#2B2017"></rect>
  <rect x="91" y="29" width="1" height="1" fill="#2B2017"></rect>
  <rect x="91" y="30" width="1" height="1" fill="#2B2017"></rect>
  <rect x="91" y="31" width="1" height="1" fill="#2B2017"></rect>
  
</svg>